<svg xmlns="http://www.w3.org/2000/svg" width="74.408" height="48.894" viewBox="0 0 19.687 12.937"><g style="fill:#fff"><g style="fill:#fff;fill-opacity:1"><path d="M31.64 233.653c-1.33 0-2.4 1.07-2.4 2.4v7.2c0 1.33 1.07 2.4 2.4 2.4h1.2v-4.8h4.8v4.8h1.2c1.33 0 2.4-1.07 2.4-2.4v-7.2c0-1.33-1.07-2.4-2.4-2.4zm2.17 2.4h2.859c.538 0 .971.506.971 1.133v1.267h-4.8v-1.267c0-.627.433-1.133.97-1.133" style="opacity:1;fill:#fff;fill-opacity:1;stroke:none;stroke-width:.13924624;stroke-linecap:round;stroke-linejoin:round;stroke-miterlimit:4;stroke-dasharray:none;stroke-opacity:1;paint-order:markers stroke fill" transform="translate(-1.63 -50.218)scale(.22945)"/><path d="M46.4 233.653c-1.33 0-2.4 1.07-2.4 2.4v4.8h8.4v1.267c0 .628-.638 1.133-1.431 1.133H44c0 1.33 1.07 2.4 2.4 2.4h7.2c1.33 0 2.4-1.07 2.4-2.4v-4.8h-8.4v-1.267c0-.628.638-1.133 1.431-1.133H56c0-1.33-1.07-2.4-2.4-2.4zM60.56 233.653c-.997 0-1.8.803-1.8 1.8v8.4c0 .998.803 1.8 1.8 1.8h1.8v-4.8h2.4c1.33 0 2.4 1.07 2.4 2.4v2.4h1.8c.997 0 1.8-.802 1.8-1.8v-1.8c0-1.33-1.07-2.4-2.4-2.4 1.33 0 2.4-1.07 2.4-2.4v-1.8c0-.997-.803-1.8-1.8-1.8h-1.8v2.4c0 1.33-1.07 2.4-2.4 2.4h-2.4v-4.8z" style="opacity:1;fill:#fff;fill-opacity:1;stroke:none;stroke-width:.13924626;stroke-linecap:round;stroke-linejoin:round;stroke-miterlimit:4;stroke-dasharray:none;stroke-opacity:1;paint-order:markers stroke fill" transform="translate(-1.63 -50.218)scale(.22945)"/></g><g style="fill:#fff;fill-opacity:1" transform="translate(-1.63 -50.218)scale(.22945)"><rect width="12" height="12" x="14.48" y="233.653" rx="2.4" style="opacity:1;fill:#fff;fill-opacity:1;stroke:none;stroke-width:.13924573;stroke-linecap:round;stroke-linejoin:round;stroke-miterlimit:4;stroke-dasharray:none;stroke-opacity:1;paint-order:markers stroke fill"/><rect width="12" height="12" x="73.52" y="233.653" rx="2.4" style="opacity:1;fill:#fff;fill-opacity:1;stroke:none;stroke-width:.13924573;stroke-linecap:round;stroke-linejoin:round;stroke-miterlimit:4;stroke-dasharray:none;stroke-opacity:1;paint-order:markers stroke fill"/><rect width="12" height="12" x="66.14" y="218.86" rx="2.4" style="opacity:1;fill:#fff;fill-opacity:1;stroke:none;stroke-width:.13924573;stroke-linecap:round;stroke-linejoin:round;stroke-miterlimit:4;stroke-dasharray:none;stroke-opacity:1;paint-order:markers stroke fill"/><rect width="12" height="12" x="7.1" y="218.86" rx="2.4" style="opacity:1;fill:#fff;fill-opacity:1;stroke:none;stroke-width:.13924573;stroke-linecap:round;stroke-linejoin:round;stroke-miterlimit:4;stroke-dasharray:none;stroke-opacity:1;paint-order:markers stroke fill"/><rect width="12" height="12" x="21.86" y="218.86" rx="2.4" style="opacity:1;fill:#fff;fill-opacity:1;stroke:none;stroke-width:.13924573;stroke-linecap:round;stroke-linejoin:round;stroke-miterlimit:4;stroke-dasharray:none;stroke-opacity:1;paint-order:markers stroke fill"/><rect width="12" height="12" x="36.62" y="218.86" rx="2.4" style="opacity:1;fill:#fff;fill-opacity:1;stroke:none;stroke-width:.13924573;stroke-linecap:round;stroke-linejoin:round;stroke-miterlimit:4;stroke-dasharray:none;stroke-opacity:1;paint-order:markers stroke fill"/><rect width="12" height="12" x="51.38" y="218.86" rx="2.4" style="opacity:1;fill:#fff;fill-opacity:1;stroke:none;stroke-width:.13924573;stroke-linecap:round;stroke-linejoin:round;stroke-miterlimit:4;stroke-dasharray:none;stroke-opacity:1;paint-order:markers stroke fill"/><rect width="12" height="12" x="80.9" y="218.86" rx="2.4" style="opacity:1;fill:#fff;fill-opacity:1;stroke:none;stroke-width:.13924573;stroke-linecap:round;stroke-linejoin:round;stroke-miterlimit:4;stroke-dasharray:none;stroke-opacity:1;paint-order:markers stroke fill"/><rect width="12" height="12" x="66.14" y="248.447" rx="2.4" style="opacity:1;fill:#fff;fill-opacity:1;stroke:none;stroke-width:.13924573;stroke-linecap:round;stroke-linejoin:round;stroke-miterlimit:4;stroke-dasharray:none;stroke-opacity:1;paint-order:markers stroke fill"/><rect width="12" height="12" x="7.1" y="248.447" rx="2.4" style="opacity:1;fill:#fff;fill-opacity:1;stroke:none;stroke-width:.13924573;stroke-linecap:round;stroke-linejoin:round;stroke-miterlimit:4;stroke-dasharray:none;stroke-opacity:1;paint-order:markers stroke fill"/><rect width="12" height="12" x="21.86" y="248.447" rx="2.4" style="opacity:1;fill:#fff;fill-opacity:1;stroke:none;stroke-width:.13924573;stroke-linecap:round;stroke-linejoin:round;stroke-miterlimit:4;stroke-dasharray:none;stroke-opacity:1;paint-order:markers stroke fill"/><rect width="12" height="12" x="36.62" y="248.447" rx="2.4" style="opacity:1;fill:#fff;fill-opacity:1;stroke:none;stroke-width:.13924573;stroke-linecap:round;stroke-linejoin:round;stroke-miterlimit:4;stroke-dasharray:none;stroke-opacity:1;paint-order:markers stroke fill"/><rect width="12" height="12" x="51.38" y="248.447" rx="2.4" style="opacity:1;fill:#fff;fill-opacity:1;stroke:none;stroke-width:.13924573;stroke-linecap:round;stroke-linejoin:round;stroke-miterlimit:4;stroke-dasharray:none;stroke-opacity:1;paint-order:markers stroke fill"/><rect width="12" height="12" x="80.9" y="248.447" rx="2.4" style="opacity:1;fill:#fff;fill-opacity:1;stroke:none;stroke-width:.13924573;stroke-linecap:round;stroke-linejoin:round;stroke-miterlimit:4;stroke-dasharray:none;stroke-opacity:1;paint-order:markers stroke fill"/><rect width="12" height="12" x="14.48" y="263.24" rx="2.4" style="opacity:1;fill:#fff;fill-opacity:1;stroke:none;stroke-width:.13924573;stroke-linecap:round;stroke-linejoin:round;stroke-miterlimit:4;stroke-dasharray:none;stroke-opacity:1;paint-order:markers stroke fill"/><rect width="40.8" height="12" x="29.6" y="263.24" rx="2.4" style="opacity:1;fill:#fff;fill-opacity:1;stroke:none;stroke-width:.25675645;stroke-linecap:round;stroke-linejoin:round;stroke-miterlimit:4;stroke-dasharray:none;stroke-opacity:1;paint-order:markers stroke fill"/><rect width="12" height="12" x="73.52" y="263.24" rx="2.4" style="opacity:1;fill:#fff;fill-opacity:1;stroke:none;stroke-width:.13924573;stroke-linecap:round;stroke-linejoin:round;stroke-miterlimit:4;stroke-dasharray:none;stroke-opacity:1;paint-order:markers stroke fill"/></g></g></svg>