<svg xmlns="http://www.w3.org/2000/svg" fill="none" viewBox="0 0 24 24"><path fill="#fff" d="M12.912 23q-3.57 0-6.286-1.43-2.677-1.43-4.152-3.891Q1 15.176 1 12q0-3.216 1.436-5.679A10.4 10.4 0 0 1 6.432 2.43Q8.954 1 12.136 1q3.065 0 5.51 1.35 2.483 1.311 3.918 3.812Q23 8.624 23 12.08q0 .358-.039.834-.038.437-.077.834H5.928v-3.613h13.774l-2.328 1.072q0-1.667-.66-2.9a4.74 4.74 0 0 0-1.823-1.905q-1.164-.715-2.716-.715t-2.755.715q-1.164.674-1.824 1.946-.66 1.23-.66 2.938v.953q0 1.748.738 3.098a5.3 5.3 0 0 0 2.134 2.025q1.396.675 3.259.675 1.668 0 2.91-.516a7.1 7.1 0 0 0 2.328-1.549l3.22 3.574q-1.436 1.668-3.608 2.581-2.172.874-5.005.874Z"/></svg>