<svg xmlns="http://www.w3.org/2000/svg" xmlns:xlink="http://www.w3.org/1999/xlink" width="192" height="192" viewBox="0 0 192 192"><defs><filter id="h" width="1.28" height="1.21" x="-.14" y="-.105" style="color-interpolation-filters:sRGB"><feGaussianBlur stdDeviation="1.4"/></filter><filter id="i" width="1.112" height="1.084" x="-.056" y="-.042" style="color-interpolation-filters:sRGB"><feGaussianBlur stdDeviation=".56"/></filter><filter id="f" width="1.077" height="1.127" x="-.039" y="-.064" style="color-interpolation-filters:sRGB"><feGaussianBlur stdDeviation="2.44"/></filter><filter id="g" width="1.077" height="1.127" x="-.039" y="-.064" style="color-interpolation-filters:sRGB"><feGaussianBlur stdDeviation="2.44"/></filter><filter id="d" width="1.067" height="1.171" x="-.033" y="-.086" style="color-interpolation-filters:sRGB"><feGaussianBlur stdDeviation="2"/></filter><filter id="c" width="1.11" height="1.085" x="-.055" y="-.043" style="color-interpolation-filters:sRGB"><feGaussianBlur stdDeviation="2.92"/></filter><linearGradient xlink:href="#a" id="k" x1="192" x2="192" y1="140.3" y2="332.3" gradientTransform="translate(266.857 297.648)" gradientUnits="userSpaceOnUse"/><linearGradient id="a"><stop offset="0" style="stop-color:#fbfcfc;stop-opacity:.1"/><stop offset="1" style="stop-color:#fbfcfc;stop-opacity:0"/></linearGradient><linearGradient xlink:href="#b" id="e" x1="80" x2="80" y1="252.3" y2="280.3" gradientTransform="translate(266.857 297.648)" gradientUnits="userSpaceOnUse"/><linearGradient id="b"><stop offset="0" style="stop-color:#4d6570;stop-opacity:1"/><stop offset="1" style="stop-color:#4d6570;stop-opacity:.06"/></linearGradient><radialGradient xlink:href="#a" id="j" cx="0" cy="243.209" r="76" fx="0" fy="243.209" gradientTransform="rotate(45 653.662 975.561)scale(3.57274)" gradientUnits="userSpaceOnUse"/></defs><g transform="translate(-266.857 -437.948)"><path d="M316.857 449.948c-3.324 0-6 2.676-6 6v8c0 3.324 2.676 6 6 6h14v16h8v-16h2c3.324 0 6-2.676 6-6v-8c0-3.324-2.676-6-6-6zm68 0c-3.324 0-6 2.676-6 6v8c0 3.324 2.676 6 6 6h2v16h8v-16h14c3.324 0 6-2.676 6-6v-8c0-3.324-2.676-6-6-6zm-86 108v12l25.608 38c2.07 3.589 5.935 6 10.392 6h56c4.457 0 8.323-2.411 10.393-6h.011l25.596-38v-12z" style="color:#000;clip-rule:nonzero;display:inline;overflow:visible;visibility:visible;opacity:.2;color-interpolation:sRGB;color-interpolation-filters:linearRGB;fill:#000;fill-opacity:1;fill-rule:nonzero;stroke:none;stroke-width:.34016225;stroke-linecap:round;stroke-linejoin:miter;stroke-miterlimit:4;stroke-dasharray:none;stroke-dashoffset:0;stroke-opacity:1;marker:none;filter:url(#c);color-rendering:auto;image-rendering:auto;shape-rendering:auto;text-rendering:auto;enable-background:accumulate"/><path d="M316.857 445.948c-3.324 0-6 2.676-6 6v8c0 3.324 2.676 6 6 6h14v16h8v-16h2c3.324 0 6-2.676 6-6v-8c0-3.324-2.676-6-6-6zm68 0c-3.324 0-6 2.676-6 6v8c0 3.324 2.676 6 6 6h2v16h8v-16h14c3.324 0 6-2.676 6-6v-8c0-3.324-2.676-6-6-6zm-86 108v12l25.608 38c2.07 3.589 5.935 6 10.392 6h56c4.457 0 8.323-2.411 10.393-6h.011l25.596-38v-12z" style="color:#000;clip-rule:nonzero;display:inline;overflow:visible;visibility:visible;opacity:.2;color-interpolation:sRGB;color-interpolation-filters:linearRGB;fill:#000;fill-opacity:1;fill-rule:nonzero;stroke:none;stroke-width:.34016225;stroke-linecap:round;stroke-linejoin:miter;stroke-miterlimit:4;stroke-dasharray:none;stroke-dashoffset:0;stroke-opacity:1;marker:none;filter:url(#c);color-rendering:auto;image-rendering:auto;shape-rendering:auto;text-rendering:auto;enable-background:accumulate"/><path d="m290.857 553.948 8 12 25.608 38c2.07 3.589 5.935 6 10.392 6h56c4.457 0 8.323-2.411 10.393-6h.011l25.596-38 8-12z" style="color:#000;clip-rule:nonzero;display:inline;overflow:visible;visibility:visible;opacity:.2;color-interpolation:sRGB;color-interpolation-filters:linearRGB;fill:#000;fill-opacity:1;fill-rule:nonzero;stroke:none;stroke-width:.34016225;stroke-linecap:round;stroke-linejoin:miter;stroke-miterlimit:4;stroke-dasharray:none;stroke-dashoffset:0;stroke-opacity:1;marker:none;filter:url(#d);color-rendering:auto;image-rendering:auto;shape-rendering:auto;text-rendering:auto;enable-background:accumulate"/><path d="M32 116v12l25.607 38c2.07 3.589 5.936 6 10.393 6h56c4.457 0 8.323-2.411 10.393-6h.011L160 128v-12z" style="fill:#607d8b;fill-opacity:1;fill-rule:evenodd;stroke:none;stroke-width:.37600005px;stroke-linecap:butt;stroke-linejoin:miter;stroke-opacity:1" transform="translate(266.857 437.948)"/><path d="M330.857 453.948h8v28h-8zM386.857 453.948h8v28h-8z" style="color:#000;clip-rule:nonzero;display:inline;overflow:visible;visibility:visible;opacity:1;color-interpolation:sRGB;color-interpolation-filters:linearRGB;fill:#263238;fill-opacity:1;fill-rule:nonzero;stroke:none;stroke-width:5.99999952;stroke-linecap:round;stroke-linejoin:miter;stroke-miterlimit:4;stroke-dasharray:none;stroke-dashoffset:0;stroke-opacity:1;marker:none;color-rendering:auto;image-rendering:auto;shape-rendering:auto;text-rendering:auto;enable-background:accumulate"/><path d="M298.857 564.948v1l25.608 38c2.07 3.589 5.935 6 10.392 6h56c4.457 0 8.323-2.411 10.393-6h.011l25.596-38v-1l-25.596 38h-.011c-2.07 3.589-5.936 6-10.393 6h-56a11.96 11.96 0 0 1-10.392-6z" style="color:#000;clip-rule:nonzero;display:inline;overflow:visible;visibility:visible;opacity:1;color-interpolation:sRGB;color-interpolation-filters:linearRGB;fill:#4d6570;fill-opacity:1;fill-rule:nonzero;stroke:none;stroke-width:.34016225;stroke-linecap:round;stroke-linejoin:miter;stroke-miterlimit:4;stroke-dasharray:none;stroke-dashoffset:0;stroke-opacity:1;marker:none;color-rendering:auto;image-rendering:auto;shape-rendering:auto;text-rendering:auto;enable-background:accumulate"/><rect width="20" height="36" x="445.948" y="-346.857" rx="6" ry="6" style="color:#000;clip-rule:nonzero;display:inline;overflow:visible;visibility:visible;opacity:1;color-interpolation:sRGB;color-interpolation-filters:linearRGB;fill:#607d8b;fill-opacity:1;fill-rule:nonzero;stroke:none;stroke-width:.34016225;stroke-linecap:round;stroke-linejoin:miter;stroke-miterlimit:4;stroke-dasharray:none;stroke-dashoffset:0;stroke-opacity:1;marker:none;color-rendering:auto;image-rendering:auto;shape-rendering:auto;text-rendering:auto;enable-background:accumulate" transform="rotate(90)"/><rect width="20" height="36" x="445.948" y="-414.857" rx="6" ry="6" style="color:#000;clip-rule:nonzero;display:inline;overflow:visible;visibility:visible;opacity:1;color-interpolation:sRGB;color-interpolation-filters:linearRGB;fill:#607d8b;fill-opacity:1;fill-rule:nonzero;stroke:none;stroke-width:.34016225;stroke-linecap:round;stroke-linejoin:miter;stroke-miterlimit:4;stroke-dasharray:none;stroke-dashoffset:0;stroke-opacity:1;marker:none;color-rendering:auto;image-rendering:auto;shape-rendering:auto;text-rendering:auto;enable-background:accumulate" transform="rotate(90)"/><path d="M310.857 458.948v1c0 3.324 2.676 6 6 6h24c3.324 0 6-2.676 6-6v-1c0 3.324-2.676 6-6 6h-24c-3.324 0-6-2.676-6-6M378.857 458.948v1c0 3.324 2.676 6 6 6h24c3.324 0 6-2.676 6-6v-1c0 3.324-2.676 6-6 6h-24c-3.324 0-6-2.676-6-6" style="color:#000;clip-rule:nonzero;display:inline;overflow:visible;visibility:visible;opacity:1;color-interpolation:sRGB;color-interpolation-filters:linearRGB;fill:#4d6570;fill-opacity:1;fill-rule:nonzero;stroke:none;stroke-width:.34016225;stroke-linecap:round;stroke-linejoin:miter;stroke-miterlimit:4;stroke-dasharray:none;stroke-dashoffset:0;stroke-opacity:1;marker:none;color-rendering:auto;image-rendering:auto;shape-rendering:auto;text-rendering:auto;enable-background:accumulate"/><path d="M316.857 445.948c-3.324 0-6 2.676-6 6v1c0-3.324 2.676-6 6-6h24c3.324 0 6 2.676 6 6v-1c0-3.324-2.676-6-6-6zM384.857 445.948c-3.324 0-6 2.676-6 6v1c0-3.324 2.676-6 6-6h24c3.324 0 6 2.676 6 6v-1c0-3.324-2.676-6-6-6z" style="color:#000;clip-rule:nonzero;display:inline;overflow:visible;visibility:visible;opacity:1;color-interpolation:sRGB;color-interpolation-filters:linearRGB;fill:#8097a2;fill-opacity:1;fill-rule:nonzero;stroke:none;stroke-width:.34016225;stroke-linecap:round;stroke-linejoin:miter;stroke-miterlimit:4;stroke-dasharray:none;stroke-dashoffset:0;stroke-opacity:1;marker:none;color-rendering:auto;image-rendering:auto;shape-rendering:auto;text-rendering:auto;enable-background:accumulate"/><path d="M298.857 553.948v12l25.608 38c2.07 3.589 5.935 6 10.392 6h56c4.457 0 8.323-2.411 10.393-6h.011l25.596-38v-12z" style="fill:url(#e);fill-opacity:1;fill-rule:evenodd;stroke:none;stroke-width:.37600005px;stroke-linecap:butt;stroke-linejoin:miter;stroke-opacity:1"/><g transform="translate(266.857 297.648)"><rect width="92" height="152" x="180.3" y="-172" rx="12" ry="12" style="color:#000;clip-rule:nonzero;display:inline;overflow:visible;visibility:visible;opacity:.2;color-interpolation:sRGB;color-interpolation-filters:linearRGB;fill:#000;fill-opacity:1;fill-rule:nonzero;stroke:none;stroke-width:.34016225;stroke-linecap:round;stroke-linejoin:miter;stroke-miterlimit:4;stroke-dasharray:none;stroke-dashoffset:0;stroke-opacity:1;marker:none;filter:url(#f);color-rendering:auto;image-rendering:auto;shape-rendering:auto;text-rendering:auto;enable-background:accumulate" transform="rotate(90)"/><rect width="92" height="152" x="176.3" y="-172" rx="12" style="color:#000;clip-rule:nonzero;display:inline;overflow:visible;visibility:visible;opacity:.2;color-interpolation:sRGB;color-interpolation-filters:linearRGB;fill:#000;fill-opacity:1;fill-rule:nonzero;stroke:none;stroke-width:.34016225;stroke-linecap:round;stroke-linejoin:miter;stroke-miterlimit:4;stroke-dasharray:none;stroke-dashoffset:0;stroke-opacity:1;marker:none;filter:url(#g);color-rendering:auto;image-rendering:auto;shape-rendering:auto;text-rendering:auto;enable-background:accumulate" transform="rotate(90)"/><rect width="92" height="152" x="176.3" y="-172" rx="12" style="color:#000;clip-rule:nonzero;display:inline;overflow:visible;visibility:visible;opacity:1;color-interpolation:sRGB;color-interpolation-filters:linearRGB;fill:#ff1744;fill-opacity:1;fill-rule:nonzero;stroke:none;stroke-width:.34016225;stroke-linecap:round;stroke-linejoin:miter;stroke-miterlimit:4;stroke-dasharray:none;stroke-dashoffset:0;stroke-opacity:1;marker:none;color-rendering:auto;image-rendering:auto;shape-rendering:auto;text-rendering:auto;enable-background:accumulate" transform="rotate(90)"/><path d="m36 192.3 60 32 60-32" style="fill:none;fill-rule:evenodd;stroke:#fbe9e7;stroke-width:6;stroke-linecap:round;stroke-linejoin:miter;stroke-miterlimit:4;stroke-dasharray:none;stroke-opacity:1"/><path d="M32 36c-6.648 0-12 5.352-12 12v1c0-6.648 5.352-12 12-12h128c6.648 0 12 5.352 12 12v-1c0-6.648-5.352-12-12-12z" style="color:#000;clip-rule:nonzero;display:inline;overflow:visible;visibility:visible;opacity:1;color-interpolation:sRGB;color-interpolation-filters:linearRGB;fill:#ff4569;fill-opacity:1;fill-rule:nonzero;stroke:none;stroke-width:.34016225;stroke-linecap:round;stroke-linejoin:miter;stroke-miterlimit:4;stroke-dasharray:none;stroke-dashoffset:0;stroke-opacity:1;marker:none;color-rendering:auto;image-rendering:auto;shape-rendering:auto;text-rendering:auto;enable-background:accumulate" transform="translate(0 140.3)"/><path d="M20 115v1c0 6.648 5.352 12 12 12h128c6.648 0 12-5.352 12-12v-1c0 6.648-5.352 12-12 12H32c-6.648 0-12-5.352-12-12" style="color:#000;clip-rule:nonzero;display:inline;overflow:visible;visibility:visible;opacity:1;color-interpolation:sRGB;color-interpolation-filters:linearRGB;fill:#d81a3d;fill-opacity:1;fill-rule:nonzero;stroke:none;stroke-width:.34016225;stroke-linecap:round;stroke-linejoin:miter;stroke-miterlimit:4;stroke-dasharray:none;stroke-dashoffset:0;stroke-opacity:1;marker:none;color-rendering:auto;image-rendering:auto;shape-rendering:auto;text-rendering:auto;enable-background:accumulate" transform="translate(0 140.3)"/></g><g transform="translate(266.857 297.648)"><path d="M90 296.3c-3.324 0-6 2.676-6 6v12c0 .273.026.54.06.803v.006A12 12 0 0 0 84 316.3a12 12 0 0 0 12 12 12 12 0 0 0 12-12 12 12 0 0 0-.066-1.152 6 6 0 0 0 .066-.848v-12c0-3.324-2.676-6-6-6z" style="color:#000;clip-rule:nonzero;display:inline;overflow:visible;visibility:visible;opacity:.2;color-interpolation:sRGB;color-interpolation-filters:linearRGB;fill:#000;fill-opacity:1;fill-rule:nonzero;stroke:none;stroke-width:8.99999523;stroke-linecap:round;stroke-linejoin:miter;stroke-miterlimit:4;stroke-dasharray:none;stroke-dashoffset:0;stroke-opacity:1;marker:none;filter:url(#h);color-rendering:auto;image-rendering:auto;shape-rendering:auto;text-rendering:auto;enable-background:accumulate"/><path d="M90 152c-3.324 0-6 2.676-6 6v12c0 .273.026.54.06.803v.006A12 12 0 0 0 84 172a12 12 0 0 0 12 12 12 12 0 0 0 12-12 12 12 0 0 0-.066-1.152A6 6 0 0 0 108 170v-12c0-3.324-2.676-6-6-6z" style="color:#000;clip-rule:nonzero;display:inline;overflow:visible;visibility:visible;opacity:.2;color-interpolation:sRGB;color-interpolation-filters:linearRGB;fill:#000;fill-opacity:1;fill-rule:nonzero;stroke:none;stroke-width:8.99999523;stroke-linecap:round;stroke-linejoin:miter;stroke-miterlimit:4;stroke-dasharray:none;stroke-dashoffset:0;stroke-opacity:1;marker:none;filter:url(#i);color-rendering:auto;image-rendering:auto;shape-rendering:auto;text-rendering:auto;enable-background:accumulate" transform="translate(0 140.3)"/><rect width="24" height="24" x="292.3" y="-108" rx="6" ry="6" style="color:#000;clip-rule:nonzero;display:inline;overflow:visible;visibility:visible;opacity:1;color-interpolation:sRGB;color-interpolation-filters:linearRGB;fill:#263238;fill-opacity:1;fill-rule:nonzero;stroke:none;stroke-width:.34016225;stroke-linecap:round;stroke-linejoin:miter;stroke-miterlimit:4;stroke-dasharray:none;stroke-dashoffset:0;stroke-opacity:1;marker:none;color-rendering:auto;image-rendering:auto;shape-rendering:auto;text-rendering:auto;enable-background:accumulate" transform="rotate(90)"/><circle cx="96" cy="312.3" r="12" style="color:#000;clip-rule:nonzero;display:inline;overflow:visible;visibility:visible;opacity:1;color-interpolation:sRGB;color-interpolation-filters:linearRGB;fill:#263238;fill-opacity:1;fill-rule:nonzero;stroke:none;stroke-width:8.99999523;stroke-linecap:round;stroke-linejoin:miter;stroke-miterlimit:4;stroke-dasharray:none;stroke-dashoffset:0;stroke-opacity:1;marker:none;color-rendering:auto;image-rendering:auto;shape-rendering:auto;text-rendering:auto;enable-background:accumulate"/><path d="M90 152c-3.324 0-6 2.676-6 6v1c0-3.324 2.676-6 6-6h12c3.324 0 6 2.676 6 6v-1c0-3.324-2.676-6-6-6z" style="color:#000;clip-rule:nonzero;display:inline;overflow:visible;visibility:visible;opacity:1;color-interpolation:sRGB;color-interpolation-filters:linearRGB;fill:#37474f;fill-opacity:1;fill-rule:nonzero;stroke:none;stroke-width:.34016225;stroke-linecap:round;stroke-linejoin:miter;stroke-miterlimit:4;stroke-dasharray:none;stroke-dashoffset:0;stroke-opacity:1;marker:none;color-rendering:auto;image-rendering:auto;shape-rendering:auto;text-rendering:auto;enable-background:accumulate" transform="translate(0 140.3)"/><path d="M84.021 171.43A12 12 0 0 0 84 172a12 12 0 0 0 12 12 12 12 0 0 0 12-12 12 12 0 0 0-.02-.414A12 12 0 0 1 96 183a12 12 0 0 1-11.979-11.57" style="color:#000;clip-rule:nonzero;display:inline;overflow:visible;visibility:visible;opacity:1;color-interpolation:sRGB;color-interpolation-filters:linearRGB;fill:#1a252a;fill-opacity:1;fill-rule:nonzero;stroke:none;stroke-width:8.99999523;stroke-linecap:round;stroke-linejoin:miter;stroke-miterlimit:4;stroke-dasharray:none;stroke-dashoffset:0;stroke-opacity:1;marker:none;color-rendering:auto;image-rendering:auto;shape-rendering:auto;text-rendering:auto;enable-background:accumulate" transform="translate(0 140.3)"/></g><path d="M316.857 445.948c-3.324 0-6 2.676-6 6v8c0 3.324 2.676 6 6 6h14v8h-32c-6.648 0-12 5.352-12 12v68c0 6.648 5.352 12 12 12l25.607 38c2.07 3.589 5.936 6 10.393 6h16a12 12 0 0 0 12 12 12 12 0 0 0 11.998-12h16.002c4.457 0 8.323-2.411 10.392-6h.01l25.598-38c6.647 0 12-5.352 12-12v-68c0-6.648-5.354-12-12.002-12h-31.998v-8h13.998a5.99 5.99 0 0 0 6.002-6v-8c0-3.324-2.678-6-6.002-6h-23.998c-3.324 0-6 2.676-6 6v8c0 3.324 2.676 6 6 6h2v8h-48v-8h1.998a5.99 5.99 0 0 0 6.002-6v-8c0-3.324-2.678-6-6.002-6z" style="fill:url(#j);fill-opacity:1;fill-rule:evenodd;stroke:none;stroke-width:.37600005px;stroke-linecap:butt;stroke-linejoin:miter;stroke-opacity:1"/><path d="M316.857 445.948c-3.324 0-6 2.676-6 6v8c0 3.324 2.676 6 6 6h14v8h-32c-6.648 0-12 5.352-12 12v68c0 6.648 5.352 12 12 12l25.607 38c2.07 3.589 5.936 6 10.393 6h16a12 12 0 0 0 12 12 12 12 0 0 0 11.998-12h16.002c4.457 0 8.323-2.411 10.392-6h.01l25.598-38c6.647 0 12-5.352 12-12v-68c0-6.648-5.354-12-12.002-12h-31.998v-8h13.998a5.99 5.99 0 0 0 6.002-6v-8c0-3.324-2.678-6-6.002-6h-23.998c-3.324 0-6 2.676-6 6v8c0 3.324 2.676 6 6 6h2v8h-48v-8h1.998a5.99 5.99 0 0 0 6.002-6v-8c0-3.324-2.678-6-6.002-6z" style="fill:url(#k);fill-opacity:1;fill-rule:evenodd;stroke:none;stroke-width:.37600005px;stroke-linecap:butt;stroke-linejoin:miter;stroke-opacity:1"/></g></svg>