<svg xmlns="http://www.w3.org/2000/svg" width="36" height="36" viewBox="0 0 9.525 9.525"><defs><filter id="f" style="color-interpolation-filters:sRGB"><feFlood flood-color="#000" flood-opacity=".275" result="flood"/><feComposite in="flood" in2="SourceGraphic" operator="in" result="composite1"/><feGaussianBlur in="composite1" result="blur" stdDeviation="2"/><feOffset dy="2" result="offset"/><feComposite in="SourceGraphic" in2="offset" result="composite2"/></filter><filter id="e" style="color-interpolation-filters:sRGB"><feFlood flood-color="#000" flood-opacity=".275" result="flood"/><feComposite in="flood" in2="SourceGraphic" operator="in" result="composite1"/><feGaussianBlur in="composite1" result="blur" stdDeviation="2"/><feOffset dy="2" result="offset"/><feComposite in="SourceGraphic" in2="offset" result="composite2"/></filter></defs><g style="display:inline"><path d="M-42.362 85.985v7.975l59.702 59.704h7.975v-7.975l-59.702-59.704Z" style="display:inline;fill:#ffa726;fill-opacity:1;stroke-width:3.75985432;filter:url(#e)" transform="translate(5.347 -4.274)scale(.07594)"/><path d="M10.268 82.24c-4.572.169-8.91 2.06-12.146 5.294-7.082 7.081-7.082 18.563 0 25.644 7.08 7.082 18.562 7.082 25.643 0s7.081-18.563 0-25.644a18.13 18.13 0 0 0-13.497-5.295m7.901 12.572a5.546 5.546 0 0 1 5.545 5.544 5.546 5.546 0 0 1-5.545 5.545 5.546 5.546 0 0 1-5.544-5.545 5.546 5.546 0 0 1 5.544-5.544m-37.326 27.67-23.205 23.207v7.975h7.975l8.49-8.49v.03h7.974v-7.975h-.03l.03-.03v.03h8.004v-5.508z" style="display:inline;fill:#fff;fill-opacity:1;stroke-width:3.75985432;filter:url(#f)" transform="translate(5.347 -4.274)scale(.07594)"/></g></svg>