<svg xmlns="http://www.w3.org/2000/svg" xml:space="preserve" width="1027" height="1109" overflow="hidden"><defs><clipPath id="a"><path d="M692 855h1027v1109H692z"/></clipPath><clipPath id="b"><path d="M-2-2h541v786H-2z"/></clipPath><clipPath id="d"><path d="M0 0h535v782H0z"/></clipPath><filter id="c" width="120%" height="120%" x="-10%" y="-10%" filterUnits="userSpaceOnUse" primitiveUnits="userSpaceOnUse"><feComponentTransfer color-interpolation-filters="sRGB"><feFuncR tableValues="0 0" type="discrete"/><feFuncG tableValues="0 0" type="discrete"/><feFuncB tableValues="0 0" type="discrete"/><feFuncA slope=".4" type="linear"/></feComponentTransfer><feGaussianBlur stdDeviation="4.58333 4.58333"/></filter></defs><g clip-path="url(#a)" transform="translate(-692 -855)"><path fill="#37474f" fill-rule="evenodd" d="M692 1191v384.69c0 64.72 39.499 75.5 39.499 75.5l416.531 280.43c64.63 43.15 46.68-50.33 46.68-50.33v-352.33z"/><g clip-path="url(#b)" filter="url(#c)" transform="translate(1184 1182)"><g clip-path="url(#d)"><path fill="#455a64" fill-rule="evenodd" d="M520.482 15.482v384.694c0 64.714-39.499 75.5-39.499 75.5s-351.897 237.287-416.53 280.43c-64.635 43.144-46.68-50.333-46.68-50.333V353.437z"/></g></g><path fill="#455a64" fill-rule="evenodd" d="M1698 1191v384.69c0 64.72-39.5 75.5-39.5 75.5s-351.9 237.29-416.53 280.43c-64.63 43.15-46.68-50.33-46.68-50.33v-352.33z"/><path fill="#546e7a" fill-rule="evenodd" d="M1241.71 868.473c-28.75-17.964-71.86-17.964-97.01 0L713.557 1163.07c-28.743 17.97-28.743 50.3 0 68.26l431.143 298.2c28.74 17.96 71.86 17.96 97.01 0l434.73-301.79c28.75-17.96 28.75-50.3 0-68.26z"/><path fill="#546e7a" fill-rule="evenodd" d="M1195 1949c-21.6 0-36-13.81-36-31.08v-386.84c0-17.26 14.4-31.08 36-31.08s36 13.82 36 31.08v383.38c0 20.73-14.4 34.54-36 34.54"/><path fill="#99aab5" fill-rule="evenodd" d="M1553.92 1435.92c0 35.97 3.58 50.35-35.89 75.53l-89.71 57.54c-39.47 25.18-53.82 3.6-53.82-28.77v-93.51c0-7.19 0-10.79-10.77-17.98-93.3-64.74-452.139-312.89-516.73-359.64L1012.07 954c46.65 28.772 387.54 255.35 527.49 352.45 7.18 3.6 10.77 10.79 10.77 14.39v115.08Z"/><path fill="#ccd6dd" fill-rule="evenodd" d="M1543.41 1310.21c-143.59-97.04-484.62-323.458-527.69-352.21l-64.617 39.534L847 1069.41c64.615 46.73 423.59 291.12 516.92 355.81 7.18 3.59 7.18 7.19 7.18 10.78l175.9-122.2s0-3.59-3.59-3.59"/><path fill="#ccd6dd" fill-rule="evenodd" d="M1554.9 1435.48v-111.29c0-7.18-3.6-10.77-10.79-14.36-143.83-96.94-485.44-323.109-528.6-351.83L940 1008.26c122.26 82.57 449.49 297.98 535.79 359.01 10.79 7.18 10.79 14.36 10.79 17.95V1536l35.96-25.13c35.96-25.13 32.36-43.08 32.36-75.39"/><path fill="#e1e8ed" fill-rule="evenodd" d="M1543.23 1309.95C1399.6 1212.98 1058.49 986.731 1015.4 958l-75.4 50.28c122.08 82.6 448.83 298.08 535.01 359.13l3.59 3.59 75.4-53.87c-7.18-3.59-7.18-7.18-10.77-7.18"/></g></svg>